<?xml version="1.0" encoding="UTF-8"?>
<svg version="1.1" xmlns="http://www.w3.org/2000/svg" width="256" height="256">
<path d="M0 0 C21.71585082 20.48758672 32.77410121 45.68165793 34.80859375 75.16015625 C35.34932197 94.21287429 30.69470618 119.6651926 17.91015625 134.48828125 C9.10533433 148.27090523 15.625 167.14501261 15.625 183.5 C-39.815 183.5 -95.255 183.5 -152.375 183.5 C-152.375 170.63 -152.375 157.76 -152.375 144.5 C-153.00821878 137.33001077 -153.00821878 137.33001077 -156 132 C-165.41944531 117.16890222 -170.73134753 100.07451093 -171.375 82.5 C-171.41496094 81.73171875 -171.45492187 80.9634375 -171.49609375 80.171875 C-172.28593408 52.10931285 -161.17248866 25.04877451 -142.05859375 4.71484375 C-103.9035315 -34.23719108 -40.34253323 -36.84144396 0 0 Z " fill="#363535" transform="translate(197.375,51.5)"/>
<path d="M0 0 C4.49454822 3.30380267 8.52682211 7.02115946 12.55078125 10.875 C13.31261719 11.56207031 14.07445312 12.24914062 14.859375 12.95703125 C29.74933219 26.86636734 41.66408738 49.84732773 42.6730957 70.36181641 C43.23953052 90.44201638 43.83556006 116.18288599 30.55078125 132.875 C29.84563279 135.02233927 29.84563279 135.02233927 29.55078125 136.875 C28.89078125 136.875 28.23078125 136.875 27.55078125 136.875 C27.24140625 137.679375 26.93203125 138.48375 26.61328125 139.3125 C25.55078125 141.875 25.55078125 141.875 24.55078125 142.875 C20.92078125 142.875 17.29078125 142.875 13.55078125 142.875 C13.55078125 124.395 13.55078125 105.915 13.55078125 86.875 C16.52078125 86.875 19.49078125 86.875 22.55078125 86.875 C23.29707344 83.89502034 23.29707344 83.89502034 23.83984375 80.875 C24.73498913 75.54576241 24.73498913 75.54576241 27.1328125 73.57421875 C28.90428847 72.60829817 30.72730574 71.73875156 32.55078125 70.875 C35.04633536 68.79537157 35.4918048 68.05192935 36.55078125 64.875 C35.80828125 65.04 35.06578125 65.205 34.30078125 65.375 C24.26852611 66.71263402 14.21980009 66.65434589 5.55078125 60.875 C6.21078125 58.565 6.87078125 56.255 7.55078125 53.875 C6.62003784 54.52432495 5.68929443 55.1736499 4.73034668 55.84265137 C-0.15887411 58.61495297 -4.81702665 58.43707497 -10.32226562 58.39257812 C-11.39469009 58.3995874 -12.46711456 58.40659668 -13.57203674 58.41381836 C-17.10428027 58.43137168 -20.63571758 58.41978432 -24.16796875 58.40625 C-26.62984368 58.40894566 -29.09171757 58.4128287 -31.55358887 58.41784668 C-36.70819251 58.42373815 -41.86251852 58.41518963 -47.01708984 58.39648438 C-53.61800995 58.37369557 -60.21827947 58.38682045 -66.81917572 58.41077423 C-71.90131516 58.42524136 -76.98330083 58.4206219 -82.06544495 58.41026306 C-84.49907 58.40759833 -86.9327091 58.41085656 -89.36631775 58.42018127 C-92.76997762 58.43036139 -96.17258985 58.41482365 -99.57617188 58.39257812 C-100.57793961 58.40067505 -101.57970734 58.40877197 -102.61183167 58.41711426 C-108.75287496 58.34291146 -112.3894331 57.40491495 -117.44921875 53.875 C-116.95421875 57.34 -116.95421875 57.34 -116.44921875 60.875 C-125.30874967 65.7095156 -134.74070246 67.52864211 -144.81640625 65.3671875 C-145.35523438 65.20476562 -145.8940625 65.04234375 -146.44921875 64.875 C-143.3745674 70.5851884 -143.3745674 70.5851884 -137.9609375 73.57421875 C-135.44921875 74.875 -135.44921875 74.875 -134.3046875 77.6953125 C-134.08425781 78.78585938 -133.86382812 79.87640625 -133.63671875 81 C-133.40339844 82.09570312 -133.17007813 83.19140625 -132.9296875 84.3203125 C-132.77113281 85.16335937 -132.61257812 86.00640625 -132.44921875 86.875 C-129.47921875 86.875 -126.50921875 86.875 -123.44921875 86.875 C-123.44921875 105.355 -123.44921875 123.835 -123.44921875 142.875 C-126.74921875 142.875 -130.04921875 142.875 -133.44921875 142.875 C-135.38671875 140.5625 -135.38671875 140.5625 -136.44921875 137.875 C-136.90683594 137.44058594 -137.36445313 137.00617188 -137.8359375 136.55859375 C-151.91249719 121.86852783 -151.96566887 93.89698636 -151.73046875 75.32421875 C-151.5211017 66.93592795 -150.34449852 59.75659492 -147.44921875 51.875 C-147.07539063 50.83214844 -146.7015625 49.78929688 -146.31640625 48.71484375 C-136.19428002 22.73918869 -117.66263212 2.79756256 -92.54345703 -9.22021484 C-61.98568482 -22.42225539 -27.35847846 -18.15792348 0 0 Z " fill="#F9EED0" transform="translate(183.44921875,45.125)"/>
<path d="M0 0 C4.29 0 8.58 0 13 0 C13.495 1.423125 13.495 1.423125 14 2.875 C16.17283915 6.27006117 16.51890422 6.49193978 20.1875 7.375 C21.445625 7.58125 22.70375 7.7875 24 8 C24 7.34 24 6.68 24 6 C22.8553125 5.8453125 22.8553125 5.8453125 21.6875 5.6875 C18.81583516 4.95288806 17.76957906 4.3283935 16 2 C16 1.34 16 0.68 16 0 C20.95 0 25.9 0 31 0 C31.99 1.98 32.98 3.96 34 6 C37.5693717 7.44967902 37.5693717 7.44967902 41 8 C41 7.34 41 6.68 41 6 C40.401875 5.896875 39.80375 5.79375 39.1875 5.6875 C36.68741714 4.90175967 35.62464918 4.03081147 34 2 C34 1.34 34 0.68 34 0 C43.99057873 -0.78734859 43.99057873 -0.78734859 48.125 2.4375 C48.74375 3.283125 49.3625 4.12875 50 5 C51.96822886 6.96822886 55.34808709 6.66248381 58 7 C58 7.33 58 7.66 58 8 C56.35 8 54.7 8 53 8 C53 12.62 53 17.24 53 22 C50.69 22.33 48.38 22.66 46 23 C48.0659594 26.71872691 49.88742431 28.88742431 53 32 C53 46.85 53 61.7 53 77 C12.41 77 -28.18 77 -70 77 C-70 61.82 -70 46.64 -70 31 C-69.01 30.67 -68.02 30.34 -67 30 C-67 33.63 -67 37.26 -67 41 C-65.68 41 -64.36 41 -63 41 C-63 39.02 -63 37.04 -63 35 C-62.34 35 -61.68 35 -61 35 C-61 36.98 -61 38.96 -61 41 C-59.02 41 -57.04 41 -55 41 C-55 39.02 -55 37.04 -55 35 C-54.34 35 -53.68 35 -53 35 C-53 37.31 -53 39.62 -53 42 C-50.36 42 -47.72 42 -45 42 C-45 39.69 -45 37.38 -45 35 C-44.67 35 -44.34 35 -44 35 C-44 36.98 -44 38.96 -44 41 C-41.69 41 -39.38 41 -37 41 C-37 39.02 -37 37.04 -37 35 C-36.34 35 -35.68 35 -35 35 C-35 36.98 -35 38.96 -35 41 C-33.35 41 -31.7 41 -30 41 C-30 39.02 -30 37.04 -30 35 C-29.34 35 -28.68 35 -28 35 C-28 37.31 -28 39.62 -28 42 C-27.01 41.67 -26.02 41.34 -25 41 C-24.67 37.04 -24.34 33.08 -24 29 C-37.86 29 -51.72 29 -66 29 C-65 27 -64 25 -63 23 C-65.31 22.67 -67.62 22.34 -70 22 C-70 18.04 -70 14.08 -70 10 C-44.92 10 -19.84 10 6 10 C6.33 9.34 6.66 8.68 7 8 C6.1028125 7.87625 6.1028125 7.87625 5.1875 7.75 C2.34974589 6.77705573 1.50323933 5.55550687 0 3 C0 2.01 0 1.02 0 0 Z " fill="#343233" transform="translate(137,112)"/>
<path d="M0 0 C1.88192299 -0.01062721 1.88192299 -0.01062721 3.80186462 -0.02146912 C5.18983496 -0.01917531 6.57780494 -0.01666561 7.96577454 -0.01396179 C9.42957825 -0.01830978 10.89337968 -0.02349322 12.35717773 -0.02944946 C16.33265061 -0.04284599 20.30802845 -0.04341708 24.28351951 -0.04088616 C27.60576352 -0.03981622 30.92798833 -0.04470077 34.25022823 -0.04949158 C42.09325046 -0.06059047 49.93622481 -0.06102299 57.7792511 -0.05497742 C65.85784909 -0.04894565 73.93627257 -0.06122742 82.01484078 -0.08254749 C88.95854032 -0.10019568 95.90218448 -0.10615951 102.8459056 -0.10290974 C106.98940733 -0.1011008 111.13278476 -0.1036935 115.2762661 -0.11762428 C119.17758611 -0.13024933 123.07863574 -0.12821463 126.97995186 -0.11521339 C128.40651416 -0.11285765 129.83309576 -0.11554614 131.25963593 -0.12383652 C133.21806845 -0.13439096 135.17657873 -0.12435292 137.13500977 -0.11352539 C138.77400002 -0.113777 138.77400002 -0.113777 140.44610119 -0.1140337 C143.88496399 0.26069641 143.88496399 0.26069641 152.88496399 3.26069641 C152.88496399 15.80069641 152.88496399 28.34069641 152.88496399 41.26069641 C97.44496399 41.26069641 42.00496399 41.26069641 -15.11503601 41.26069641 C-15.11503601 28.72069641 -15.11503601 16.18069641 -15.11503601 3.26069641 C-13.46503601 2.93069641 -11.81503601 2.60069641 -10.11503601 2.26069641 C-9.47803363 1.91544827 -8.84103125 1.57020014 -8.18472576 1.21448994 C-5.37785928 -0.0790233 -3.08577746 0.00580752 0 0 Z " fill="#222324" transform="translate(60.11503601074219,193.7393035888672)"/>
<path d="M0 0 C34.98 0 69.96 0 106 0 C106 1.32 106 2.64 106 4 C88.51 4 71.02 4 53 4 C53.495 24.295 53.495 24.295 54 45 C62.91 45 71.82 45 81 45 C81 49.29 81 53.58 81 58 C54.27 58 27.54 58 0 58 C0 42.82 0 27.64 0 12 C0.99 11.67 1.98 11.34 3 11 C3 14.63 3 18.26 3 22 C4.32 22 5.64 22 7 22 C7 20.02 7 18.04 7 16 C7.66 16 8.32 16 9 16 C9 17.98 9 19.96 9 22 C10.98 22 12.96 22 15 22 C15 20.02 15 18.04 15 16 C15.66 16 16.32 16 17 16 C17 18.31 17 20.62 17 23 C19.64 23 22.28 23 25 23 C25 20.69 25 18.38 25 16 C25.33 16 25.66 16 26 16 C26 17.98 26 19.96 26 22 C28.31 22 30.62 22 33 22 C33 20.02 33 18.04 33 16 C33.66 16 34.32 16 35 16 C35 17.98 35 19.96 35 22 C36.65 22 38.3 22 40 22 C40 20.02 40 18.04 40 16 C40.66 16 41.32 16 42 16 C42 18.31 42 20.62 42 23 C42.99 22.67 43.98 22.34 45 22 C45.33 18.04 45.66 14.08 46 10 C32.14 10 18.28 10 4 10 C5 8 6 6 7 4 C4.69 3.67 2.38 3.34 0 3 C0 2.01 0 1.02 0 0 Z " fill="#9E9597" transform="translate(67,131)"/>
<path d="M0 0 C21.71585082 20.48758672 32.77410121 45.68165793 34.80859375 75.16015625 C35.37409808 95.08586767 30.10347752 118.69389786 17.890625 134.78515625 C16.37822382 136.83436649 16.14724425 138.23306905 15.9375 140.75 C15.7828125 142.60625 15.7828125 142.60625 15.625 144.5 C14.44212402 144.33766876 13.25924805 144.17533752 12.04052734 144.00808716 C5.36434404 143.27230102 -1.31538669 143.36011469 -8.0234375 143.37060547 C-9.48797651 143.3692482 -10.95251519 143.36746643 -12.41705322 143.36529541 C-16.3715525 143.36075988 -20.32602551 143.36249461 -24.28052521 143.3656745 C-28.43229744 143.36821821 -32.58406752 143.36585497 -36.73583984 143.36428833 C-43.70605877 143.3624725 -50.67626707 143.36485756 -57.64648438 143.36962891 C-65.68820484 143.37507039 -73.72989995 143.37330732 -81.7716198 143.3678025 C-88.69417982 143.36325467 -95.61673225 143.36262899 -102.53929329 143.36524117 C-106.66590922 143.36679476 -110.79251326 143.36702297 -114.91912842 143.36370468 C-118.79991586 143.36080166 -122.68067082 143.36284609 -126.56145477 143.36859894 C-127.97995703 143.36991355 -129.39846206 143.36955468 -130.8169632 143.36733627 C-138.08696371 143.35702077 -145.16804423 143.51095798 -152.375 144.5 C-152.41625 143.38625 -152.4575 142.2725 -152.5 141.125 C-152.95735208 137.47888756 -154.03112782 135.08945368 -156 132 C-165.41944531 117.16890222 -170.73134753 100.07451093 -171.375 82.5 C-171.41496094 81.73171875 -171.45492187 80.9634375 -171.49609375 80.171875 C-172.28593408 52.10931285 -161.17248866 25.04877451 -142.05859375 4.71484375 C-103.9035315 -34.23719108 -40.34253323 -36.84144396 0 0 Z M-94.375 -19.5 C-95.38570557 -19.21020264 -96.39641113 -18.92040527 -97.43774414 -18.62182617 C-110.67405364 -14.72602878 -122.24215851 -7.80104107 -132.375 1.5 C-133.30054688 2.34433594 -134.22609375 3.18867187 -135.1796875 4.05859375 C-151.14823129 19.29727335 -164.4060446 42.17961647 -165.53613281 64.71289062 C-165.58201647 68.47535083 -165.61027313 72.2372835 -165.625 76 C-165.645625 77.28648437 -165.66625 78.57296875 -165.6875 79.8984375 C-165.75635308 97.0084274 -161.49704177 115.78702941 -152.375 130.5 C-151.58996094 131.25023437 -151.58996094 131.25023437 -150.7890625 132.015625 C-149.09604759 133.79282297 -148.88476315 135.13803695 -148.375 137.5 C-130.00644945 137.52344389 -111.63790283 137.5410353 -93.26934052 137.55181217 C-84.73896278 137.55695084 -76.20859439 137.56394683 -67.67822266 137.57543945 C-60.2361912 137.58546095 -52.79416652 137.59187106 -45.35212851 137.59408849 C-41.41797643 137.59538302 -37.4838437 137.59838804 -33.54969788 137.60573006 C-29.83316795 137.61260858 -26.11666501 137.61459338 -22.40012932 137.61310768 C-20.4136457 137.61350627 -18.4271649 137.61883893 -16.44068909 137.62442017 C-12.75032756 137.62027967 -9.06458444 137.57540802 -5.375 137.5 C-4.66514513 137.48708443 -3.95529026 137.47416887 -3.22392464 137.46086192 C-1.02405362 137.41101363 1.17282802 137.33122481 3.37145996 137.24290466 C4.6868148 137.1975228 6.00216965 137.15214094 7.35738373 137.10538387 C10.67916342 136.80521736 10.67916342 136.80521736 12.57834625 134.57856846 C13.77491505 132.59015023 13.77491505 132.59015023 13.625 130.5 C14.285 130.5 14.945 130.5 15.625 130.5 C16.0375 129.51 16.45 128.52 16.875 127.5 C17.98720372 124.87874992 19.21346113 122.38111965 20.5625 119.875 C27.81525302 105.36949396 28.77263558 89.6570615 28.9375 73.75 C28.95522461 72.72100586 28.97294922 71.69201172 28.99121094 70.63183594 C28.98408521 63.20445616 27.72131044 56.60977198 25.625 49.5 C25.32480957 48.47680664 25.02461914 47.45361328 24.71533203 46.39941406 C17.23859501 21.71445198 0.14257032 0.92440057 -22.375 -11.5 C-28.82401294 -14.82501057 -35.42589158 -17.4366525 -42.375 -19.5 C-43.22586182 -19.75652344 -44.07672363 -20.01304688 -44.95336914 -20.27734375 C-52.85089623 -22.46705382 -60.20516668 -22.95527129 -68.375 -22.875 C-69.55578125 -22.88660156 -70.7365625 -22.89820313 -71.953125 -22.91015625 C-79.84555195 -22.88407995 -86.82571182 -21.75843907 -94.375 -19.5 Z " fill="#353533" transform="translate(197.375,51.5)"/>
<path d="M0 0 C17.49 0 34.98 0 53 0 C53 12.54 53 25.08 53 38 C45.15825847 41.36074637 45.15825847 41.36074637 41.1875 41.625 C37.97211981 41.84505974 37.97211981 41.84505974 35 43 C34.31068656 45.34907875 34.31068656 45.34907875 33.875 48.0625 C33.70742187 48.98160156 33.53984375 49.90070313 33.3671875 50.84765625 C33.18542969 51.91306641 33.18542969 51.91306641 33 53 C31.68 53 30.36 53 29 53 C28.67 49.04 28.34 45.08 28 41 C18.76 41.33 9.52 41.66 0 42 C0 28.14 0 14.28 0 0 Z " fill="#F7A400" transform="translate(120,135)"/>
<path d="M0 0 C34.98 0 69.96 0 106 0 C106 1.32 106 2.64 106 4 C88.51 4 71.02 4 53 4 C53.495 24.295 53.495 24.295 54 45 C62.91 45 71.82 45 81 45 C81 49.29 81 53.58 81 58 C69.45 58 57.9 58 46 58 C45.814375 52.3075 45.62875 46.615 45.4375 40.75 C45.37618896 38.97979492 45.31487793 37.20958984 45.25170898 35.38574219 C45.20763075 33.93946948 45.1640608 32.49318115 45.12109375 31.046875 C45.09438599 30.33096191 45.06767822 29.61504883 45.04016113 28.87744141 C44.85975067 22.4339055 45.45390617 16.55312591 46 10 C32.14 10 18.28 10 4 10 C5 8 6 6 7 4 C4.69 3.67 2.38 3.34 0 3 C0 2.01 0 1.02 0 0 Z " fill="#5F6CAE" transform="translate(67,131)"/>
<path d="M0 0 C55.44 0 110.88 0 168 0 C168 2.64 168 5.28 168 8 C166.81712402 7.83766876 165.63424805 7.67533752 164.41552734 7.50808716 C157.73934404 6.77230102 151.05961331 6.86011469 144.3515625 6.87060547 C142.88702349 6.8692482 141.42248481 6.86746643 139.95794678 6.86529541 C136.0034475 6.86075988 132.04897449 6.86249461 128.09447479 6.8656745 C123.94270256 6.86821821 119.79093248 6.86585497 115.63916016 6.86428833 C108.66894123 6.8624725 101.69873293 6.86485756 94.72851562 6.86962891 C86.68679516 6.87507039 78.64510005 6.87330732 70.6033802 6.8678025 C63.68082018 6.86325467 56.75826775 6.86262899 49.83570671 6.86524117 C45.70909078 6.86679476 41.58248674 6.86702297 37.45587158 6.86370468 C33.57508414 6.86080166 29.69432918 6.86284609 25.81354523 6.86859894 C24.39504297 6.86991355 22.97653794 6.86955468 21.5580368 6.86733627 C14.28803629 6.85702077 7.20695577 7.01095798 0 8 C0 5.36 0 2.72 0 0 Z " fill="#1D1E1F" transform="translate(45,188)"/>
<path d="M0 0 C2.8125 -0.1875 2.8125 -0.1875 6 0 C6.44988281 0.50144531 6.89976563 1.00289062 7.36328125 1.51953125 C8.94481199 3.26536977 8.94481199 3.26536977 11.5234375 3.1171875 C12.46445313 3.03726563 13.40546875 2.95734375 14.375 2.875 C18.50181273 2.76568046 19.63692174 2.75794783 23.1875 5.125 C25.31074789 8.49291044 25.58217339 10.0911215 25 14 C24 16.375 24 16.375 23 18 C23.495 18.495 23.99 18.99 24.5 19.5 C26.56778317 22.94630528 26.84389736 26.13341576 26 30 C23.82425584 32.69105198 22.08934144 34.45532928 19 36 C17.21247508 36.14754174 15.4183716 36.2211522 13.625 36.25 C12.66851562 36.27578125 11.71203125 36.3015625 10.7265625 36.328125 C7.5957292 35.9513485 6.23945962 35.18639185 4 33 C4 32.34 4 31.68 4 31 C3.278125 31.66 2.55625 32.32 1.8125 33 C-1.21597933 35.1535853 -2.39703406 35.41176754 -6 35 C-7.4606285 32.35261084 -8 31.10551666 -8 28 C-7.278125 27.608125 -6.55625 27.21625 -5.8125 26.8125 C-1.92717118 24.30862143 -0.21871504 20.9748044 2 17 C1.01 16.67 0.02 16.34 -1 16 C-3 13 -3 13 -2.625 10.8125 C-2.41875 10.214375 -2.2125 9.61625 -2 9 C-0.68 8.67 0.64 8.34 2 8 C1.67 7.4225 1.34 6.845 1 6.25 C0 4 0 4 0 0 Z " fill="#E90909" transform="translate(62,61)"/>
<path d="M0 0 C2.01250935 -0.38590336 2.01250935 -0.38590336 4.53474426 -0.40113831 C5.9668499 -0.42033073 5.9668499 -0.42033073 7.42788696 -0.43991089 C9.00429459 -0.43787155 9.00429459 -0.43787155 10.61254883 -0.43579102 C11.71671646 -0.44586685 12.82088409 -0.45594269 13.95851135 -0.46632385 C17.62478643 -0.49492343 21.29065143 -0.50068683 24.95703125 -0.50390625 C27.49810458 -0.51354008 30.03917621 -0.523632 32.58024597 -0.53416443 C37.91430186 -0.55215668 43.248204 -0.55781053 48.58227539 -0.5559082 C54.74461508 -0.55410717 60.90616574 -0.58573144 67.06830579 -0.63313919 C72.99714017 -0.67712478 78.92573402 -0.68787152 84.85474205 -0.68607903 C87.3765758 -0.68962391 89.89841511 -0.70292014 92.42014503 -0.72607613 C95.94718683 -0.75542658 99.47219398 -0.74686538 102.99926758 -0.72875977 C104.0441333 -0.74561829 105.08899902 -0.76247681 106.16552734 -0.77984619 C113.13090723 -0.68884855 113.13090723 -0.68884855 115.70134544 1.34849739 C117.03398132 2.98158264 117.03398132 2.98158264 119 6 C121.38469261 7.11057522 121.38469261 7.11057522 123.8125 7.375 C124.99779297 7.57222656 124.99779297 7.57222656 126.20703125 7.7734375 C126.79871094 7.84820312 127.39039063 7.92296875 128 8 C127.67 8.66 127.34 9.32 127 10 C119.00348432 10.6271777 119.00348432 10.6271777 115 8.125 C113 6 113 6 112 4 C109.41394668 3.5316735 109.41394668 3.5316735 106.4375 3.375 C105.42558594 3.30023438 104.41367188 3.22546875 103.37109375 3.1484375 C102.19740234 3.07496094 102.19740234 3.07496094 101 3 C103.79420492 6.91603304 103.79420492 6.91603304 108 9 C108 9.66 108 10.32 108 11 C101.52864939 10.51159618 101.52864939 10.51159618 99.0625 8.125 C98 6 98 6 98 3 C93.05 3 88.1 3 83 3 C87.25464401 8 87.25464401 8 91 9 C91 9.66 91 10.32 91 11 C88.3125 11.3125 88.3125 11.3125 85 11 C82.125 8.6875 82.125 8.6875 80 6 C80 5.01 80 4.02 80 3 C75.71 3 71.42 3 67 3 C68.78809729 7.33970917 68.78809729 7.33970917 72.1875 10.375 C72.785625 10.58125 73.38375 10.7875 74 11 C73.67 11.99 73.34 12.98 73 14 C70.75 13.875 70.75 13.875 68 13 C64 8.02702703 64 8.02702703 64 4 C60.04 4 56.08 4 52 4 C51.896875 5.11375 51.79375 6.2275 51.6875 7.375 C51.460625 8.57125 51.23375 9.7675 51 11 C48 13 48 13 45.3125 12.625 C44.549375 12.41875 43.78625 12.2125 43 12 C43.804375 11.4225 44.60875 10.845 45.4375 10.25 C48.37853204 8.09797845 48.37853204 8.09797845 49 4 C44.38 4 39.76 4 35 4 C34.34 5.98 33.68 7.96 33 10 C31.125 11.9375 31.125 11.9375 29 13 C26.75 12.6875 26.75 12.6875 25 12 C25 11.34 25 10.68 25 10 C25.78375 9.773125 26.5675 9.54625 27.375 9.3125 C30.62111098 8.05276848 30.62111098 8.05276848 32 3 C26.72 3 21.44 3 16 3 C15.67 4.65 15.34 6.3 15 8 C12.1875 10.375 12.1875 10.375 9 12 C6.625 11.75 6.625 11.75 5 11 C5 10.34 5 9.68 5 9 C5.94875 8.566875 6.8975 8.13375 7.875 7.6875 C11.20041937 6.20697799 11.20041937 6.20697799 13 3 C5.23267356 2.91721669 5.23267356 2.91721669 -1.25 6.5625 C-4 9 -4 9 -7.875 9.3125 C-8.90625 9.209375 -9.9375 9.10625 -11 9 C-11 8.34 -11 7.68 -11 7 C-10.37351563 6.74605469 -9.74703125 6.49210937 -9.1015625 6.23046875 C-8.28429688 5.88628906 -7.46703125 5.54210937 -6.625 5.1875 C-5.81289062 4.85105469 -5.00078125 4.51460938 -4.1640625 4.16796875 C-1.69852542 3.05560918 -1.69852542 3.05560918 0 0 Z " fill="#5367A3" transform="translate(70,109)"/>
<path d="M0 0 C0.33 0 0.66 0 1 0 C1 1.98 1 3.96 1 6 C3.31 6 5.62 6 8 6 C8 4.02 8 2.04 8 0 C8.66 0 9.32 0 10 0 C10 1.98 10 3.96 10 6 C11.65 6 13.3 6 15 6 C15 4.02 15 2.04 15 0 C15.66 0 16.32 0 17 0 C17 2.31 17 4.62 17 7 C17.99 7 18.98 7 20 7 C20 9.97 20 12.94 20 16 C19.030625 16.37125 18.06125 16.7425 17.0625 17.125 C13.68859031 18.71052362 13.68859031 18.71052362 13.125 22.1875 C13.08375 23.115625 13.0425 24.04375 13 25 C10.03 25 7.06 25 4 25 C4 23.35 4 21.7 4 20 C1.68690295 20.11341637 -0.62550185 20.24103807 -2.9375 20.375 C-4.22527344 20.44460937 -5.51304688 20.51421875 -6.83984375 20.5859375 C-7.88269531 20.72257812 -8.92554687 20.85921875 -10 21 C-10.33 21.66 -10.66 22.32 -11 23 C-10.34 23 -9.68 23 -9 23 C-9 23.66 -9 24.32 -9 25 C-11.31 25 -13.62 25 -16 25 C-16 19.06 -16 13.12 -16 7 C-13.69 7 -11.38 7 -9 7 C-9 5.02 -9 3.04 -9 1 C-8.67 1 -8.34 1 -8 1 C-8 2.98 -8 4.96 -8 7 C-5.36 7 -2.72 7 0 7 C0 4.69 0 2.38 0 0 Z " fill="#586DAC" transform="translate(92,147)"/>
<path d="M0 0 C4.42674616 3.01395484 8.13544692 6.74925455 9.453125 12.08984375 C9.72335319 17.11801831 8.14170662 20.26175894 4.9375 24 C0.73455418 26.54458097 -3.26978166 26.92136575 -8.0625 26 C-12.9540187 23.27727366 -16.26088043 19.29888109 -18.0625 14 C-18.7189633 9.83966383 -18.55733173 6.81293784 -16.3125 3.125 C-11.3198929 -1.59024004 -6.61865958 -2.16119497 0 0 Z " fill="#EC1111" transform="translate(107.0625,71)"/>
<path d="M0 0 C0.61875 0.165 1.2375 0.33 1.875 0.5 C5.50734405 1.08117505 8.929996 0.98112496 12.59765625 0.83984375 C15.25855623 1.01723708 16.756992 1.58234126 19 3 C20.98103776 5.52753094 21.95530935 7.15087772 22.125 10.375 C20.39966548 14.40078055 17.3985203 17.27647449 14 20 C13.34 20 12.68 20 12 20 C12.75150023 23.27773504 12.75150023 23.27773504 16 25 C19.62683775 25.37198336 21.87350101 24.85274014 25 23 C27.25740223 25.44551908 27.97222725 26.76856041 28.375 30.125 C28.25125 31.07375 28.1275 32.0225 28 33 C24.85626955 35.0958203 22.83176548 35.5898033 19.0703125 35.52734375 C15.14472197 34.52742918 13.1307521 31.25879733 11 28 C10.67 27.34 10.34 26.68 10 26 C7.525 30.455 7.525 30.455 5 35 C4.01 35 3.02 35 2 35 C0.89345056 30.07082522 1.0357853 27.5343151 3.296875 23.04296875 C4.73110332 18.8757387 4.21236455 14.3495406 4 10 C3.071875 9.8453125 3.071875 9.8453125 2.125 9.6875 C0 9 0 9 -2 6 C-1.65394389 3.71602968 -1.03295481 2.06590963 0 0 Z " fill="#EC0B0B" transform="translate(115,62)"/>
<path d="M0 0 C-0.875 6.75 -0.875 6.75 -2 9 C-3.98 9 -5.96 9 -8 9 C-7.34 9.66 -6.68 10.32 -6 11 C-6.11438371 16.83356912 -7.93859501 20.9154531 -12 25 C-14.1875 25.9375 -14.1875 25.9375 -17 26 C-17.77988281 26.05929688 -18.55976563 26.11859375 -19.36328125 26.1796875 C-23.58625999 26.3924005 -26.27542453 26.38446862 -30.0625 24.375 C-32.363706 21.55416683 -32.75499132 19.59346057 -33 16 C-32.38125 16.495 -31.7625 16.99 -31.125 17.5 C-25.72581663 20.09160802 -19.69631359 19.63127687 -14 18 C-14 17.34 -14 16.68 -14 16 C-18.70973649 14.23384882 -23.03083364 13.51405169 -28 13 C-27.88590407 11.54077307 -27.75834456 10.08259402 -27.625 8.625 C-27.55539063 7.81289062 -27.48578125 7.00078125 -27.4140625 6.1640625 C-27 4 -27 4 -25 2 C-21.97298509 1.16367092 -18.85275864 0.78324739 -15.75 0.3125 C-14.90308594 0.17005859 -14.05617187 0.02761719 -13.18359375 -0.11914062 C-8.51990461 -0.84806871 -4.66065662 -1.13470235 0 0 Z " fill="#EDEDF0" transform="translate(154,205)"/>
<path d="M0 0 C5.28 0 10.56 0 16 0 C15.67 1.65 15.34 3.3 15 5 C12 7 12 7 9 7 C9.33 7.66 9.66 8.32 10 9 C12.40877257 8.88658466 12.40877257 8.88658466 15 8 C16.80787306 5.62597583 16.80787306 5.62597583 18 3 C18.33 2.34 18.66 1.68 19 1 C23.62 1 28.24 1 33 1 C32 6 32 6 29.9375 7.8125 C29.298125 8.204375 28.65875 8.59625 28 9 C29.98 8.67 31.96 8.34 34 8 C34.66 5.69 35.32 3.38 36 1 C39.96 1 43.92 1 48 1 C48.9765625 3.01822917 49.953125 5.03645833 50.9296875 7.0546875 C51.96557543 9.15135019 51.96557543 9.15135019 54 11 C32.22 11 10.44 11 -12 11 C-9.54969992 8.54969992 -7.03838896 7.62461594 -3.875 6.29296875 C-1.40209807 4.84292747 -1.40209807 4.84292747 0 0 Z " fill="#383434" transform="translate(86,112)"/>
<path d="M0 0 C14.19 0.33 28.38 0.66 43 1 C43 4.96 43 8.92 43 13 C41.68 13.33 40.36 13.66 39 14 C39 11.69 39 9.38 39 7 C38.34 7 37.68 7 37 7 C37 8.98 37 10.96 37 13 C35.35 13 33.7 13 32 13 C32 11.02 32 9.04 32 7 C31.34 7 30.68 7 30 7 C30 8.98 30 10.96 30 13 C28.865625 12.979375 27.73125 12.95875 26.5625 12.9375 C23.18424326 12.58422523 23.18424326 12.58422523 22 14 C19.32941149 14.14115161 16.67567762 14.04247107 14 14 C14 11.69 14 9.38 14 7 C13.34 7 12.68 7 12 7 C12 8.98 12 10.96 12 13 C10.02 13 8.04 13 6 13 C6 11.02 6 9.04 6 7 C5.34 7 4.68 7 4 7 C4 8.98 4 10.96 4 13 C2.68 13 1.36 13 0 13 C0 8.71 0 4.42 0 0 Z " fill="#393436" transform="translate(70,140)"/>
<path d="M0 0 C0.495 0.495 0.495 0.495 1 1 C0.71269945 3.33944736 0.38063221 5.6739143 0 8 C-0.804375 8.144375 -1.60875 8.28875 -2.4375 8.4375 C-4.92103706 8.74135249 -4.92103706 8.74135249 -6 10 C-5.67 10.33 -5.34 10.66 -5 11 C-4.52123954 14.41971754 -4.37884308 16.94111506 -6.1640625 19.984375 C-8.29801187 22.63266088 -10.08500493 24.61875205 -13.25 25.9375 C-14.61125 25.9684375 -14.61125 25.9684375 -16 26 C-16.76699219 26.0825 -17.53398438 26.165 -18.32421875 26.25 C-24.81771398 26.715901 -24.81771398 26.715901 -27.98046875 24.80078125 C-29.62112603 23.25365312 -30.89081188 21.96587814 -32 20 C-32 18.68 -32 17.36 -32 16 C-31.34 16 -30.68 16 -30 16 C-30 16.66 -30 17.32 -30 18 C-26.38132441 19.2062252 -23.07493749 19.10816918 -19.3125 19.0625 C-18.61060547 19.05798828 -17.90871094 19.05347656 -17.18554688 19.04882812 C-15.45699462 19.03706927 -13.72848635 19.01913454 -12 19 C-12.67019232 15.96208249 -12.67019232 15.96208249 -14.734375 14.8515625 C-17.2918845 13.89029169 -19.52945879 13.58977957 -22.25 13.375 C-23.14203125 13.30023438 -24.0340625 13.22546875 -24.953125 13.1484375 C-25.96632813 13.07496094 -25.96632813 13.07496094 -27 13 C-26.67 10.03 -26.34 7.06 -26 4 C-9.12775553 -1.1003816 -9.12775553 -1.1003816 0 0 Z " fill="#F0F0F3" transform="translate(94,205)"/>
<path d="M0 0 C-0.33 22.44 -0.66 44.88 -1 68 C-3.97 68.495 -3.97 68.495 -7 69 C-6.9969838 68.45400146 -6.99396759 67.90800293 -6.99085999 67.34545898 C-6.96619237 61.63414494 -6.99056628 55.92449691 -7.04272461 50.21337891 C-7.05581981 48.08548941 -7.05663957 45.95748601 -7.04467773 43.82958984 C-7.02959683 40.76026612 -7.05945565 37.6940683 -7.09765625 34.625 C-7.08340103 33.68197021 -7.06914581 32.73894043 -7.05445862 31.76733398 C-7.19601998 25.22866918 -8.89523378 22.01817528 -13.50047302 17.37646484 C-13.99531693 16.92223145 -14.49016083 16.46799805 -15 16 C-14.67 15.34 -14.34 14.68 -14 14 C-11.69 14 -9.38 14 -7 14 C-7 9.38 -7 4.76 -7 0 C-2 -1 -2 -1 0 0 Z " fill="#353434" transform="translate(197,120)"/>
<path d="M0 0 C34.65 0 69.3 0 105 0 C104.67 1.65 104.34 3.3 104 5 C91.62132413 5.02319818 79.24265347 5.04095319 66.86396027 5.05181217 C61.11567923 5.05702464 55.36741309 5.06409256 49.61914062 5.07543945 C44.06892246 5.08632649 38.51871862 5.09228916 32.9684906 5.09487724 C30.85387446 5.09672101 28.73925908 5.10032141 26.62464905 5.10573006 C23.65665002 5.11301768 20.6887097 5.11398769 17.72070312 5.11352539 C16.41734009 5.1189183 16.41734009 5.1189183 15.08764648 5.12442017 C9.96912575 5.11582634 5.06674285 4.73616906 0 4 C0 2.68 0 1.36 0 0 Z " fill="#F38941" transform="translate(68,123)"/>
<path d="M0 0 C4.13411751 2.06705875 6.22949965 3.33022152 9 7 C9.6812483 10.45270885 9.5827151 13.82452787 9.48828125 17.33203125 C9.47766914 18.81965218 9.47766914 18.81965218 9.46684265 20.33732605 C9.43891433 23.49649342 9.3761772 26.65387082 9.3125 29.8125 C9.28741518 31.95765665 9.26460234 34.10284115 9.24414062 36.24804688 C9.18909244 41.49938475 9.10282908 46.74938918 9 52 C6.03 52 3.06 52 0 52 C0 34.84 0 17.68 0 0 Z " fill="#8C8868" transform="translate(181,137)"/>
<path d="M0 0 C17.82 0 35.64 0 54 0 C54 0.33 54 0.66 54 1 C36.51 1 19.02 1 1 1 C1.33 14.53 1.66 28.06 2 42 C10.91 42 19.82 42 29 42 C29 46.29 29 50.58 29 55 C17.45 55 5.9 55 -6 55 C-6 54.67 -6 54.34 -6 54 C-2.37 54 1.26 54 5 54 C5 51.69 5 49.38 5 47 C3.68 47 2.36 47 1 47 C-0.1760003 44.6479994 -0.12084541 43.26265599 -0.11352539 40.64208984 C-0.11340454 39.7287085 -0.11328369 38.81532715 -0.11315918 37.87426758 C-0.10804321 36.91286865 -0.10292725 35.95146973 -0.09765625 34.9609375 C-0.09664917 34.07833252 -0.09564209 33.19572754 -0.09460449 32.28637695 C-0.08936395 28.98257146 -0.07540273 25.67878445 -0.0625 22.375 C-0.041875 14.99125 -0.02125 7.6075 0 0 Z " fill="#686D88" transform="translate(119,134)"/>
<path d="M0 0 C48.51 0 97.02 0 147 0 C146.34 0.99 145.68 1.98 145 3 C142.50500298 3.36914349 142.50500298 3.36914349 139.29269409 3.36076355 C138.07830658 3.36488754 136.86391907 3.36901154 135.61273193 3.3732605 C134.2598855 3.36264239 132.90704128 3.35173795 131.55419922 3.34057617 C130.13520323 3.33973031 128.71620592 3.34020424 127.29721069 3.34190369 C123.43783379 3.34276668 119.57873493 3.32509198 115.71942282 3.30418181 C111.68886812 3.28546553 107.65830751 3.28366857 103.62771606 3.28010559 C95.99203845 3.27077023 88.35648923 3.24613638 80.72086823 3.21605712 C72.02934873 3.18255939 63.3378232 3.16603877 54.64625525 3.15097082 C36.76409729 3.11958805 18.88205896 3.0667987 1 3 C0.67 2.01 0.34 1.02 0 0 Z " fill="#DDB73A" transform="translate(56,195)"/>
<path d="M0 0 C3 1 3 1 4.625 3 C6.18771362 6.40955699 6.48250645 9.20450849 6.69140625 12.9140625 C6.89299985 15.30203938 6.89299985 15.30203938 9 18 C9 19.32 9 20.64 9 22 C8.34 22 7.68 22 7 22 C7.33 25.96 7.66 29.92 8 34 C3.24137931 31.62068966 3.24137931 31.62068966 2 28 C1.875 25.25 1.875 25.25 2 23 C-3.1305352 23.98790131 -3.1305352 23.98790131 -6.875 27.375 C-7.82947123 29.60209955 -8.55980222 31.62293198 -9 34 C-9.99 34 -10.98 34 -12 34 C-14.49508588 30.25737118 -14.58419564 27.33294605 -14 23 C-13.07380292 20.14821594 -11.78879876 17.57659101 -10.375 14.9375 C-10.01470703 14.24011719 -9.65441406 13.54273437 -9.28320312 12.82421875 C-6.70890008 7.97632771 -3.89840124 3.89840124 0 0 Z " fill="#E20B0B" transform="translate(196,65)"/>
<path d="M0 0 C2.31 0 4.62 0 7 0 C7 0.33 7 0.66 7 1 C5.02 1 3.04 1 1 1 C1 2.32 1 3.64 1 5 C35.65 5 70.3 5 106 5 C106 6.32 106 7.64 106 9 C71.02 9 36.04 9 0 9 C0 6.03 0 3.06 0 0 Z " fill="#BF4037" transform="translate(67,122)"/>
<path d="M0 0 C0.99 0.33 1.98 0.66 3 1 C3.76953125 3.62890625 3.76953125 3.62890625 4 7 C2.26171875 9.90234375 2.26171875 9.90234375 -0.3125 12.9375 C-1.24035339 14.06125939 -2.16335772 15.18903622 -3.08203125 16.3203125 C-3.56236816 16.91102539 -4.04270508 17.50173828 -4.53759766 18.11035156 C-7.54614213 21.99785311 -10.14702628 26.17536645 -12.7746582 30.32592773 C-13.80127155 31.91632833 -14.89471682 33.46323127 -16 35 C-16.66 35 -17.32 35 -18 35 C-20 32 -20 32 -19.875 29.25 C-19.00158194 26.00587576 -17.61122548 23.71220321 -15.85546875 20.87890625 C-14.35570122 17.58489629 -14.75005052 14.56178006 -15 11 C-15.61875 10.731875 -16.2375 10.46375 -16.875 10.1875 C-19 9 -19 9 -21 6 C-21 4.68 -21 3.36 -21 2 C-15.555 1.505 -15.555 1.505 -10 1 C-8.68 2.98 -7.36 4.96 -6 7 C-4.02 4.69 -2.04 2.38 0 0 Z " fill="#F10B0B" transform="translate(186,64)"/>
<path d="M0 0 C2.97 0.495 2.97 0.495 6 1 C5.34580901 6.06998019 3.1453591 10.41990777 1 15 C1.33 15.33 1.66 15.66 2 16 C2.7425 15.319375 3.485 14.63875 4.25 13.9375 C7 12 7 12 9.3125 12.25 C10.1478125 12.62125 10.1478125 12.62125 11 13 C11 17.19565574 10.2710189 19.03086031 8.5 22.75 C7.80390625 24.22726563 7.80390625 24.22726563 7.09375 25.734375 C6.7328125 26.48203125 6.371875 27.2296875 6 28 C7.98 26.68 9.96 25.36 12 24 C10.74425659 27.87187551 9.65992073 30.06837517 6 32 C2.75 32.1875 2.75 32.1875 0 32 C-1.12377697 28.69564916 -0.89554742 26.9493138 0.4375 23.75 C0.72496094 23.04359375 1.01242188 22.3371875 1.30859375 21.609375 C1.53675781 21.07828125 1.76492187 20.5471875 2 20 C0.68527053 21.62319675 -0.62671662 23.248615 -1.9375 24.875 C-3.03384766 26.23238281 -3.03384766 26.23238281 -4.15234375 27.6171875 C-6.0036252 29.84502747 -6.0036252 29.84502747 -7 32 C-8.65 32 -10.3 32 -12 32 C-13.21789915 29.11175061 -12.99469732 27.98514817 -11.92016602 24.97558594 C-11.37030029 23.82348633 -10.82043457 22.67138672 -10.25390625 21.484375 C-9.96394272 20.86854553 -9.67397919 20.25271606 -9.37522888 19.6182251 C-8.44857626 17.65674424 -7.50585593 15.70349387 -6.5625 13.75 C-5.93056516 12.41978121 -5.29969289 11.08905708 -4.66992188 9.7578125 C-3.12555783 6.49925904 -1.56669165 3.24788812 0 0 Z " fill="#ECECEE" transform="translate(164,199)"/>
<path d="M0 0 C1.32 0.33 2.64 0.66 4 1 C4 1.99 4 2.98 4 4 C4.66 3.67 5.32 3.34 6 3 C7.99960012 2.960008 10.00047242 2.95653201 12 3 C11.34 4.32 10.68 5.64 10 7 C7.03 6.505 7.03 6.505 4 6 C4.33 6.66 4.66 7.32 5 8 C6.65 8 8.3 8 10 8 C10 9.98 10 11.96 10 14 C10.66 12.68 11.32 11.36 12 10 C13.65 10 15.3 10 17 10 C17 10.99 17 11.98 17 13 C16.34 13 15.68 13 15 13 C15 13.66 15 14.32 15 15 C15.66 15 16.32 15 17 15 C16.67 15.99 16.34 16.98 16 18 C15.2575 17.814375 14.515 17.62875 13.75 17.4375 C11.05009037 17.00796892 9.55368923 17.14877026 7 18 C7 17.01 7 16.02 7 15 C6.01 15.495 6.01 15.495 5 16 C4.77667849 18.32781485 4.77667849 18.32781485 7.3125 20.5625 C9.81671947 23.16285298 9.81671947 23.16285298 13 24 C13 25.32 13 26.64 13 28 C9.04 28 5.08 28 1 28 C1 26.35 1 24.7 1 23 C-0.65 22.67 -2.3 22.34 -4 22 C-4.33 20.02 -4.66 18.04 -5 16 C-3.68 16 -2.36 16 -1 16 C-0.67 15.01 -0.34 14.02 0 13 C-1.32 13 -2.64 13 -4 13 C-4 11.68 -4 10.36 -4 9 C-2.35 9.33 -0.7 9.66 1 10 C1 9.34 1 8.68 1 8 C-0.65 7.67 -2.3 7.34 -4 7 C-4.33 5.68 -4.66 4.36 -5 3 C-3.35 3 -1.7 3 0 3 C0 2.01 0 1.02 0 0 Z " fill="#4A8904" transform="translate(127,140)"/>
<path d="M0 0 C1.31387695 -0.00580078 1.31387695 -0.00580078 2.65429688 -0.01171875 C3.56115234 -0.00011719 4.46800781 0.01148438 5.40234375 0.0234375 C6.76842773 0.00603516 6.76842773 0.00603516 8.16210938 -0.01171875 C9.47405273 -0.00591797 9.47405273 -0.00591797 10.8125 0 C12.00758179 0.00507568 12.00758179 0.00507568 13.22680664 0.01025391 C15.33984375 0.3984375 15.33984375 0.3984375 18.33984375 3.3984375 C18.33984375 6.6984375 18.33984375 9.9984375 18.33984375 13.3984375 C9.42984375 13.3984375 0.51984375 13.3984375 -8.66015625 13.3984375 C-8.66015625 10.0984375 -8.66015625 6.7984375 -8.66015625 3.3984375 C-4.15238739 0.01761085 -4.15238739 0.01761085 0 0 Z " fill="#FB6C46" transform="translate(84.66015625,174.6015625)"/>
<path d="M0 0 C1.4540625 0.0309375 1.4540625 0.0309375 2.9375 0.0625 C3.2675 1.0525 3.5975 2.0425 3.9375 3.0625 C3.628125 3.64 3.31875 4.2175 3 4.8125 C1.50150245 7.98578894 1.68116496 10.60197694 1.9375 14.0625 C3.86617967 16.38694564 3.86617967 16.38694564 7.25 16.5625 C11.07908304 16.36784488 11.07908304 16.36784488 13.875 13.6875 C16.91792901 9.55070761 16.37358172 4.96599673 15.9375 0.0625 C16.9275 0.0625 17.9175 0.0625 18.9375 0.0625 C21.73323203 4.72205338 22.70597004 8.69359446 21.9375 14.0625 C20.17219206 19.35842383 18.06950309 23.49649845 12.9375 26.0625 C9.00618064 26.598589 7.29317223 26.28025851 3.875 24.1875 C-0.64222987 19.95632162 -3.66091819 14.37554994 -4.40625 8.2265625 C-4.43415978 5.79143431 -4.40346109 3.47358199 -4.0625 1.0625 C-3.0625 0.0625 -3.0625 0.0625 0 0 Z " fill="#E90807" transform="translate(145.0625,72.9375)"/>
<path d="M0 0 C1.65 0 3.3 0 5 0 C6.06528748 2.73019786 6.07998186 3.79298812 5.00390625 6.578125 C4.52824219 7.45984375 4.05257812 8.3415625 3.5625 9.25 C2.85287109 10.58804688 2.85287109 10.58804688 2.12890625 11.953125 C1.75636719 12.62859375 1.38382813 13.3040625 1 14 C6.2724523 9.78971649 10.01915194 6.08589811 13 0 C15.475 0.495 15.475 0.495 18 1 C17.27623543 4.49403583 15.93714794 7.51998905 14.4375 10.75 C13.98246094 11.73484375 13.52742188 12.7196875 13.05859375 13.734375 C12.70925781 14.48203125 12.35992187 15.2296875 12 16 C13.98 14.68 15.96 13.36 18 12 C16.54685114 15.39068068 14.9594592 17.76040926 12 20 C8.25 20.25 8.25 20.25 5 20 C5 18.68 5 17.36 5 16 C3.96875 16.66 2.9375 17.32 1.875 18 C-1.53576826 19.97282726 -4.0201643 20.38827665 -8 20 C-7.45318976 14.99399078 -5.75859667 11.02818933 -3.4375 6.625 C-3.10814453 5.98433594 -2.77878906 5.34367188 -2.43945312 4.68359375 C-1.63360518 3.11861368 -0.81781507 1.55875979 0 0 Z " fill="#EBEBED" transform="translate(101,211)"/>
<path d="M0 0 C1.22551323 0.00636726 1.22551323 0.00636726 2.4757843 0.01286316 C5.08445232 0.02965184 7.69234687 0.06730356 10.30078125 0.10546875 C12.0696503 0.12051538 13.83853146 0.13420383 15.60742188 0.14648438 C19.94300621 0.17955589 24.27801261 0.23133885 28.61328125 0.29296875 C29.5475177 3.30328619 29.65778036 4.15947143 28.61328125 7.29296875 C14.75328125 7.29296875 0.89328125 7.29296875 -13.38671875 7.29296875 C-9.88609098 0.2917132 -7.68321569 -0.14986006 0 0 Z " fill="#6C9A84" transform="translate(84.38671875,133.70703125)"/>
<path d="M0 0 C2.97 0.495 2.97 0.495 6 1 C6 5.62 6 10.24 6 15 C-2.25 15 -10.5 15 -19 15 C-19 11.37 -19 7.74 -19 4 C-18.67 4 -18.34 4 -18 4 C-18 7.3 -18 10.6 -18 14 C-16.68 14 -15.36 14 -14 14 C-13.96261719 13.30132812 -13.92523438 12.60265625 -13.88671875 11.8828125 C-13.82097656 10.97273437 -13.75523437 10.06265625 -13.6875 9.125 C-13.62949219 8.22007812 -13.57148438 7.31515625 -13.51171875 6.3828125 C-13 4 -13 4 -10 2 C-7.7734375 1.62109375 -7.7734375 1.62109375 -5.375 1.4375 C-2.38885578 1.41022777 -2.38885578 1.41022777 0 0 Z " fill="#4C2D31" transform="translate(167,174)"/>
<path d="M0 0 C1.21236328 0.02707031 1.21236328 0.02707031 2.44921875 0.0546875 C3.37154297 0.08949219 3.37154297 0.08949219 4.3125 0.125 C4.3125 0.455 4.3125 0.785 4.3125 1.125 C2.45625 1.49625 2.45625 1.49625 0.5625 1.875 C-3.19654374 2.82809088 -5.42286654 3.82240953 -7.6875 7.125 C-8.02248301 9.79334966 -8.02248301 9.79334966 -7.6875 12.125 C-4.62320224 13.65714888 -2.0709358 13.35438548 1.3125 13.125 C4.18752253 12.15022193 4.18752253 12.15022193 6.3125 10.125 C7.67230881 7.04938754 7.67230881 7.04938754 8.3125 4.125 C9.3025 4.125 10.2925 4.125 11.3125 4.125 C11.3125 5.115 11.3125 6.105 11.3125 7.125 C11.9725 7.125 12.6325 7.125 13.3125 7.125 C13.81588797 12.41057366 12.65926996 15.03450339 9.3125 19.125 C5.12751673 21.67617978 1.08979909 22.0563726 -3.6875 21.125 C-7.11859741 19.16437291 -9.94253883 16.91436752 -11.484375 13.2109375 C-11.74825778 10.50106433 -11.07335163 8.96101186 -9.9375 6.5 C-9.59203125 5.72398438 -9.2465625 4.94796875 -8.890625 4.1484375 C-6.60695642 0.30772217 -4.15353807 -0.12039241 0 0 Z " fill="#F60605" transform="translate(102.6875,75.875)"/>
<path d="M0 0 C-0.48144941 4.81449408 -0.8008587 7.60171741 -3 12 C-5.97 12 -8.94 12 -12 12 C-12 30.48 -12 48.96 -12 68 C-12.33 68 -12.66 68 -13 68 C-13 46.22 -13 24.44 -13 2 C-2 0 -2 0 0 0 Z " fill="#D7935A" transform="translate(209,120)"/>
<path d="M0 0 C1.14626322 0.97866338 2.29199788 1.95794587 3.4375 2.9375 C4.07558594 3.48277344 4.71367187 4.02804688 5.37109375 4.58984375 C6.26991149 5.36795695 7.15936528 6.15936528 8 7 C8.0927833 8.38160115 8.11747043 9.76788038 8.11352539 11.15258789 C8.11344986 12.03342545 8.11337433 12.914263 8.11329651 13.8217926 C8.10813522 14.77907761 8.10297394 15.73636261 8.09765625 16.72265625 C8.0962413 17.69786728 8.09482635 18.67307831 8.09336853 19.67784119 C8.08775133 22.80609143 8.07519593 25.93427123 8.0625 29.0625 C8.05748722 31.17773334 8.05292393 33.29296781 8.04882812 35.40820312 C8.03777631 40.60549296 8.02102146 45.80274145 8 51 C5.36 51 2.72 51 0 51 C0 50.67 0 50.34 0 50 C1.98 50 3.96 50 6 50 C6 48.68 6 47.36 6 46 C4.02 46 2.04 46 0 46 C0 45.01 0 44.02 0 43 C1.98 43 3.96 43 6 43 C6 38.71 6 34.42 6 30 C4.02 30 2.04 30 0 30 C0 28.68 0 27.36 0 26 C1.65 26 3.3 26 5 26 C4.67 19.4 4.34 12.8 4 6 C2.68 5.67 1.36 5.34 0 5 C0 3.35 0 1.7 0 0 Z " fill="#F4F1F0" transform="translate(182,137)"/>
<path d="M0 0 C3.96 0.33 7.92 0.66 12 1 C12.77690412 5.11884485 13.12236308 8.99990175 13.11352539 13.18896484 C13.11344986 14.38975677 13.11337433 15.59054871 13.11329651 16.82772827 C13.10813522 18.10918732 13.10297394 19.39064636 13.09765625 20.7109375 C13.09578895 22.04757636 13.09436652 23.38421592 13.09336853 24.72085571 C13.08956795 28.22249269 13.07975891 31.72408756 13.06866455 35.22570801 C13.05839732 38.80541413 13.05385957 42.38512712 13.04882812 45.96484375 C13.03813422 52.97657969 13.02108764 59.98828782 13 67 C12.67 67 12.34 67 12 67 C12 48.52 12 30.04 12 11 C9.03 11 6.06 11 3 11 C0 3.375 0 3.375 0 0 Z " fill="#BF7C52" transform="translate(48,121)"/>
<path d="M0 0 C11.88 0 23.76 0 36 0 C36 4.62 36 9.24 36 14 C33.03 14 30.06 14 27 14 C26.95101562 13.30132812 26.90203125 12.60265625 26.8515625 11.8828125 C26.77679688 10.97273437 26.70203125 10.06265625 26.625 9.125 C26.55539063 8.22007812 26.48578125 7.31515625 26.4140625 6.3828125 C26.20431868 3.82058097 26.20431868 3.82058097 24 2 C21.93483791 1.69016821 21.93483791 1.69016821 19.5703125 1.734375 C18.69246094 1.73179687 17.81460938 1.72921875 16.91015625 1.7265625 C15.53150391 1.73816406 15.53150391 1.73816406 14.125 1.75 C12.75794922 1.73839844 12.75794922 1.73839844 11.36328125 1.7265625 C10.48285156 1.72914063 9.60242188 1.73171875 8.6953125 1.734375 C7.89109863 1.73663086 7.08688477 1.73888672 6.25830078 1.74121094 C3.78464659 2.02467834 2.14402046 2.76450437 0 4 C0 2.68 0 1.36 0 0 Z " fill="#FEF7E9" transform="translate(76,174)"/>
<path d="M0 0 C0.86882812 0.00386719 1.73765625 0.00773437 2.6328125 0.01171875 C4.875 0.3125 4.875 0.3125 6.875 2.3125 C6.875 5.1875 6.875 5.1875 5.875 8.3125 C2.60139678 11.27433149 0.59096687 12.23968981 -3.8125 12.6875 C-7.125 12.3125 -7.125 12.3125 -10.125 10.3125 C-9.63482744 3.81771362 -9.63482744 3.81771362 -7.3984375 1.6015625 C-4.71433135 0.07964664 -3.06597019 -0.05948897 0 0 Z " fill="#F9EEE7" transform="translate(104.125,77.6875)"/>
<path d="M0 0 C1.32 0 2.64 0 4 0 C4 11.22 4 22.44 4 34 C2.35 34 0.7 34 -1 34 C-1.02953103 30.39585115 -1.04697407 26.79173424 -1.0625 23.1875 C-1.07087891 22.18267578 -1.07925781 21.17785156 -1.08789062 20.14257812 C-1.10966319 13.37131176 -0.7369831 6.73089074 0 0 Z " fill="#556CB1" transform="translate(71,154)"/>
<path d="M0 0 C1.31871094 -0.00580078 1.31871094 -0.00580078 2.6640625 -0.01171875 C3.57929687 -0.00011719 4.49453125 0.01148438 5.4375 0.0234375 C6.81035156 0.00603516 6.81035156 0.00603516 8.2109375 -0.01171875 C9.09007813 -0.00785156 9.96921875 -0.00398437 10.875 0 C12.07962891 0.00507568 12.07962891 0.00507568 13.30859375 0.01025391 C15.94328775 0.49066256 16.83740768 1.28324914 18.4375 3.3984375 C18.73046875 5.87890625 18.73046875 5.87890625 18.625 8.5859375 C18.59792969 9.48699219 18.57085937 10.38804687 18.54296875 11.31640625 C18.50816406 12.00347656 18.47335938 12.69054687 18.4375 13.3984375 C15.7975 13.3984375 13.1575 13.3984375 10.4375 13.3984375 C10.4375 10.0984375 10.4375 6.7984375 10.4375 3.3984375 C4.4975 3.3984375 -1.4425 3.3984375 -7.5625 3.3984375 C-4.34650059 0.18243809 -4.17646804 0.01759748 0 0 Z " fill="#FC6A4A" transform="translate(84.5625,174.6015625)"/>
<path d="M0 0 C3.96 0 7.92 0 12 0 C12 0.99 12 1.98 12 3 C14.64 3.33 17.28 3.66 20 4 C20 5.32 20 6.64 20 8 C11.42 8 2.84 8 -6 8 C-6 7.01 -6 6.02 -6 5 C-2.535 4.505 -2.535 4.505 1 4 C0.67 2.68 0.34 1.36 0 0 Z " fill="#D7D6D9" transform="translate(128,168)"/>
<path d="M0 0 C0 2.97 0 5.94 0 9 C-8.91 9 -17.82 9 -27 9 C-27.33 8.01 -27.66 7.02 -28 6 C-28.66 6 -29.32 6 -30 6 C-29.67 5.01 -29.34 4.02 -29 3 C-24.38 3 -19.76 3 -15 3 C-15 4.65 -15 6.3 -15 8 C-12.03 8 -9.06 8 -6 8 C-6.061875 7.05125 -6.12375 6.1025 -6.1875 5.125 C-6.0946875 3.578125 -6.0946875 3.578125 -6 2 C-3 0 -3 0 0 0 Z " fill="#DDAD89" transform="translate(111,164)"/>
<path d="M0 0 C3.94693009 -0.02501955 7.89382842 -0.04300863 11.84082031 -0.05493164 C13.83139675 -0.06233777 15.82195117 -0.07505474 17.8125 -0.08789062 C24.94263919 -0.10589603 31.92576686 0.07477959 39 1 C39.495 2.485 39.495 2.485 40 4 C26.14 4 12.28 4 -2 4 C-1.34 2.68 -0.68 1.36 0 0 Z " fill="#F18F81" transform="translate(73,137)"/>
<path d="M0 0 C1.65 0.33 3.3 0.66 5 1 C4.43174347 6.54050113 2.37113483 11.03715966 0 16 C1.98 14.68 3.96 13.36 6 12 C4.55134433 15.38019657 2.91780427 17.73059668 0 20 C-3.25 20.25 -3.25 20.25 -6 20 C-7.22744711 16.54570895 -7.00307297 14.48968711 -5.56640625 11.23046875 C-4.91230923 9.87602543 -4.24387185 8.52842954 -3.5625 7.1875 C-3.22412109 6.49462891 -2.88574219 5.80175781 -2.53710938 5.08789062 C-1.70369793 3.38585318 -0.85348076 1.69206285 0 0 Z " fill="#EAEAED" transform="translate(184,211)"/>
<path d="M0 0 C4.29 0 8.58 0 13 0 C13.350625 0.928125 13.70125 1.85625 14.0625 2.8125 C16.59919019 6.9857645 18.4710174 7.46185496 23 9 C23 9.33 23 9.66 23 10 C17.72 10 12.44 10 7 10 C7 9.34 7 8.68 7 8 C6.401875 7.9175 5.80375 7.835 5.1875 7.75 C2.34974589 6.77705573 1.50323933 5.55550687 0 3 C0 2.01 0 1.02 0 0 Z " fill="#313238" transform="translate(137,112)"/>
<path d="M0 0 C3.5625 0.1875 3.5625 0.1875 5.5625 2.1875 C5.83490673 5.20576653 5.64925125 8.15120622 5.5625 11.1875 C-2.3575 11.6825 -2.3575 11.6825 -10.4375 12.1875 C-10.4375 8.5575 -10.4375 4.9275 -10.4375 1.1875 C-10.1075 1.1875 -9.7775 1.1875 -9.4375 1.1875 C-9.4375 4.4875 -9.4375 7.7875 -9.4375 11.1875 C-8.1175 11.1875 -6.7975 11.1875 -5.4375 11.1875 C-5.37691406 10.47722656 -5.31632813 9.76695312 -5.25390625 9.03515625 C-5.17011719 8.11605469 -5.08632812 7.19695312 -5 6.25 C-4.91878906 5.33347656 -4.83757812 4.41695312 -4.75390625 3.47265625 C-4.24555176 -0.19879282 -3.88527495 0.21192409 0 0 Z " fill="#90532B" transform="translate(158.4375,176.8125)"/>
<path d="M0 0 C4.62 0 9.24 0 14 0 C13.67 1.65 13.34 3.3 13 5 C10.4375 6.3125 10.4375 6.3125 8 7 C8 7.66 8 8.32 8 9 C3.38 9 -1.24 9 -6 9 C-4.68 7.68 -3.36 6.36 -2 5 C-1.34 3.35 -0.68 1.7 0 0 Z " fill="#2F2F31" transform="translate(105,113)"/>
<path d="M0 0 C1.32 1.32 2.64 2.64 4 4 C3.67 4.66 3.34 5.32 3 6 C4.65 6.33 6.3 6.66 8 7 C8.66 10.3 9.32 13.6 10 17 C7.36 17 4.72 17 2 17 C1.67 18.32 1.34 19.64 1 21 C0.67 21 0.34 21 0 21 C0 14.07 0 7.14 0 0 Z " fill="#F4A70C" transform="translate(120,156)"/>
<path d="M0 0 C2.475 0.495 2.475 0.495 5 1 C5 7.6 5 14.2 5 21 C3.35 21 1.7 21 0 21 C0 14.07 0 7.14 0 0 Z " fill="#FE9744" transform="translate(182,142)"/>
<path d="M0 0 C0.33 0.66 0.66 1.32 1 2 C5.62 2 10.24 2 15 2 C15 2.33 15 2.66 15 3 C13.35 3 11.7 3 10 3 C10 5.31 10 7.62 10 10 C15.94 10 21.88 10 28 10 C28 10.33 28 10.66 28 11 C16.45 11 4.9 11 -7 11 C-7 10.67 -7 10.34 -7 10 C-3.37 10 0.26 10 4 10 C4 7.69 4 5.38 4 3 C2.68 3 1.36 3 0 3 C0 2.01 0 1.02 0 0 Z " fill="#3A4870" transform="translate(120,178)"/>
<path d="M0 0 C2.15478516 -0.34057617 2.15478516 -0.34057617 4.7890625 -0.29296875 C5.73007813 -0.28330078 6.67109375 -0.27363281 7.640625 -0.26367188 C9.11789063 -0.2259668 9.11789063 -0.2259668 10.625 -0.1875 C11.61757812 -0.17396484 12.61015625 -0.16042969 13.6328125 -0.14648438 C16.08908072 -0.11105743 18.54427285 -0.06166196 21 0 C21 0.33 21 0.66 21 1 C18.69 1.33 16.38 1.66 14 2 C13.67 2.99 13.34 3.98 13 5 C13 4.34 13 3.68 13 3 C5.23267356 2.91721669 5.23267356 2.91721669 -1.25 6.5625 C-4 9 -4 9 -7.875 9.3125 C-8.90625 9.209375 -9.9375 9.10625 -11 9 C-11 8.34 -11 7.68 -11 7 C-10.37351563 6.74605469 -9.74703125 6.49210937 -9.1015625 6.23046875 C-8.28429688 5.88628906 -7.46703125 5.54210937 -6.625 5.1875 C-5.81289062 4.85105469 -5.00078125 4.51460938 -4.1640625 4.16796875 C-1.69852542 3.05560918 -1.69852542 3.05560918 0 0 Z " fill="#4C5B8A" transform="translate(70,109)"/>
<path d="M0 0 C0.60864258 1.83081055 0.60864258 1.83081055 1 4 C-0.3590619 6.11647168 -1.70006096 7.90559278 -3.3125 9.8125 C-7.86654256 15.41942024 -11.91068689 21.22345832 -15.7746582 27.32543945 C-16.80115294 28.91607605 -17.8946386 30.46312252 -19 32 C-19.66 32 -20.32 32 -21 32 C-16.7478477 20.28013743 -7.38824839 9.94154011 0 0 Z " fill="#2D1110" transform="translate(189,67)"/>
<path d="M0 0 C1.32 0.33 2.64 0.66 4 1 C4 1.99 4 2.98 4 4 C4.66 3.67 5.32 3.34 6 3 C7.99960012 2.960008 10.00047242 2.95653201 12 3 C11.34 4.32 10.68 5.64 10 7 C8.88625 6.938125 7.7725 6.87625 6.625 6.8125 C4.830625 6.9053125 4.830625 6.9053125 3 7 C2.01 8.485 2.01 8.485 1 10 C1 9.34 1 8.68 1 8 C-0.65 7.67 -2.3 7.34 -4 7 C-4.33 5.68 -4.66 4.36 -5 3 C-3.35 3 -1.7 3 0 3 C0 2.01 0 1.02 0 0 Z " fill="#459100" transform="translate(127,140)"/>
<path d="M0 0 C1.65 0.33 3.3 0.66 5 1 C5 3.97 5 6.94 5 10 C6.32 10.33 7.64 10.66 9 11 C9 12.32 9 13.64 9 15 C5.87709365 14.51421457 3.00419641 14.0013988 0 13 C-0.33 11.02 -0.66 9.04 -1 7 C0.32 7 1.64 7 3 7 C3.33 6.01 3.66 5.02 4 4 C2.68 4 1.36 4 0 4 C0 2.68 0 1.36 0 0 Z " fill="#739004" transform="translate(123,149)"/>
<path d="M0 0 C4.38484423 -0.34667875 8.6261367 -0.53535659 13 0 C15.75 2.875 15.75 2.875 18 6 C20.94887127 7.08881401 23.88771524 7.60672654 27 8 C26.67 8.66 26.34 9.32 26 10 C18.00348432 10.6271777 18.00348432 10.6271777 14 8.125 C12 6 12 6 11 4 C8.41394668 3.5316735 8.41394668 3.5316735 5.4375 3.375 C3.91962891 3.26285156 3.91962891 3.26285156 2.37109375 3.1484375 C1.19740234 3.07496094 1.19740234 3.07496094 0 3 C0 2.01 0 1.02 0 0 Z " fill="#506198" transform="translate(171,109)"/>
<path d="M0 0 C2.64 0 5.28 0 8 0 C8 2.97 8 5.94 8 9 C5.36 9 2.72 9 0 9 C0 6.03 0 3.06 0 0 Z " fill="#EE8742" transform="translate(182,122)"/>
<path d="M0 0 C1.98 0 3.96 0 6 0 C6 3.63 6 7.26 6 11 C4.02 11 2.04 11 0 11 C0 7.37 0 3.74 0 0 Z " fill="#FA974D" transform="translate(182,167)"/>
<path d="M0 0 C2.49077616 3.73616423 2.516728 6.67538416 2 11 C0.23469206 16.29592383 -1.86799691 20.43399845 -7 23 C-9.875 23.3125 -9.875 23.3125 -13 23 C-15.375 21 -15.375 21 -17 19 C-16.40832031 19.11859375 -15.81664062 19.2371875 -15.20703125 19.359375 C-9.91408458 20.27059264 -9.91408458 20.27059264 -5.0625 18.25 C-1.35454241 14.20495536 -0.69551785 11.70788387 -0.375 6.3125 C-0.30023438 5.13300781 -0.22546875 3.95351562 -0.1484375 2.73828125 C-0.09945312 1.83464844 -0.05046875 0.93101563 0 0 Z " fill="#481918" transform="translate(165,76)"/>
<path d="M0 0 C-1 3 -1 3 -3.5625 4.6875 C-7.73482797 6.28057068 -10.57006738 6.22913445 -15 6 C-15 4.68 -15 3.36 -15 2 C-9.75614911 0.2520497 -5.52677733 -0.19392201 0 0 Z " fill="#F5E7DD" transform="translate(83,84)"/>
<path d="M0 0 C1.23327026 0.02356567 1.23327026 0.02356567 2.49145508 0.04760742 C3.38413086 0.05727539 4.27680664 0.06694336 5.1965332 0.0769043 C6.5896875 0.11460937 6.5896875 0.11460937 8.01098633 0.15307617 C8.95135742 0.16661133 9.89172852 0.18014648 10.8605957 0.1940918 C13.18213671 0.22944521 15.50252286 0.27878943 17.82348633 0.34057617 C17.49348633 1.33057617 17.16348633 2.32057617 16.82348633 3.34057617 C9.56348633 3.34057617 2.30348633 3.34057617 -5.17651367 3.34057617 C-2.17651367 0.34057617 -2.17651367 0.34057617 0 0 Z " fill="#FB8E63" transform="translate(82.176513671875,174.659423828125)"/>
<path d="M0 0 C-0.33 2.64 -0.66 5.28 -1 8 C-1.33 7.34 -1.66 6.68 -2 6 C-5.3 6 -8.6 6 -12 6 C-12 4.68 -12 3.36 -12 2 C-10.37548581 1.66430703 -8.75037083 1.3315204 -7.125 1 C-6.22007812 0.814375 -5.31515625 0.62875 -4.3828125 0.4375 C-2 0 -2 0 0 0 Z " fill="#F28F45" transform="translate(209,120)"/>
<path d="M0 0 C1.98 0 3.96 0 6 0 C5.01 3.96 4.02 7.92 3 12 C1.68 11.67 0.36 11.34 -1 11 C-1.02688151 9.35425434 -1.04634123 7.70838587 -1.0625 6.0625 C-1.07410156 5.14597656 -1.08570313 4.22945313 -1.09765625 3.28515625 C-1 1 -1 1 0 0 Z " fill="#F51515" transform="translate(142,73)"/>
<path d="M0 0 C0.33 0 0.66 0 1 0 C1.33 4.62 1.66 9.24 2 14 C1.01 14 0.02 14 -1 14 C-1 14.66 -1 15.32 -1 16 C-1.99 16 -2.98 16 -4 16 C-4 13.03 -4 10.06 -4 7 C-2.68 7 -1.36 7 0 7 C0 4.69 0 2.38 0 0 Z " fill="#B7C0DC" transform="translate(108,147)"/>
<path d="M0 0 C5.94 0 11.88 0 18 0 C17.67 0.99 17.34 1.98 17 3 C17 2.34 17 1.68 17 1 C12.38 1 7.76 1 3 1 C2.34 2.98 1.68 4.96 1 7 C-0.875 8.9375 -0.875 8.9375 -3 10 C-5.25 9.6875 -5.25 9.6875 -7 9 C-7 8.34 -7 7.68 -7 7 C-5.824375 6.6596875 -5.824375 6.6596875 -4.625 6.3125 C-1.37888902 5.05276848 -1.37888902 5.05276848 0 0 Z " fill="#4C5C8C" transform="translate(102,112)"/>
<path d="M0 0 C0.33 0 0.66 0 1 0 C1.61364554 7.24101736 1.61364554 7.24101736 -1.375 10.9375 C-6.27041111 14.78389444 -10.91264653 14.69235778 -17 14 C-19.6875 12 -19.6875 12 -21 10 C-20.43023437 10.15984375 -19.86046875 10.3196875 -19.2734375 10.484375 C-14.23607339 11.62686995 -9.50773701 11.4386144 -4.5625 10 C-0.84255744 7.0966302 -0.75207094 4.58763276 0 0 Z " fill="#3F1D1A" transform="translate(87,83)"/>
<path d="M0 0 C3.96 0.33 7.92 0.66 12 1 C12 2.32 12 3.64 12 5 C8.7 5 5.4 5 2 5 C1.67 5.66 1.34 6.32 1 7 C0.67 4.69 0.34 2.38 0 0 Z " fill="#FA9546" transform="translate(48,121)"/>
<path d="M0 0 C0.33 0 0.66 0 1 0 C1.50338797 5.28557366 0.34676996 7.90950339 -3 12 C-7.13866623 14.55623502 -11.25807452 14.74826714 -16 14 C-18.5625 12 -18.5625 12 -20 10 C-19.01 10.33 -18.02 10.66 -17 11 C-12.82228078 11.4068191 -9.10766437 11.38527456 -5.125 10 C-2.00649493 7.06493641 -1.26746831 4.06924036 0 0 Z " fill="#3D1714" transform="translate(115,83)"/>
<path d="M0 0 C0.928125 0.20625 1.85625 0.4125 2.8125 0.625 C2.8125 2.605 2.8125 4.585 2.8125 6.625 C0.1725 6.625 -2.4675 6.625 -5.1875 6.625 C-5.5175 4.975 -5.8475 3.325 -6.1875 1.625 C-3.1875 -0.375 -3.1875 -0.375 0 0 Z " fill="#AE4B37" transform="translate(170.1875,174.375)"/>
<path d="M0 0 C3.96 0 7.92 0 12 0 C12 1.32 12 2.64 12 4 C8.04 4 4.08 4 0 4 C0 2.68 0 1.36 0 0 Z " fill="#5A6FA3" transform="translate(128,164)"/>
<path d="M0 0 C1.60031344 3.20062687 0.03173691 5.72271806 -1 9 C-0.01 8.34 0.98 7.68 2 7 C2.99 7.33 3.98 7.66 5 8 C4.01 8.66 3.02 9.32 2 10 C1.76722538 12.35807283 1.76722538 12.35807283 4.5 14.5625 C5.7375 15.7690625 5.7375 15.7690625 7 17 C7 17.33 7 17.66 7 18 C5.35 18 3.7 18 2 18 C1.8453125 17.0409375 1.8453125 17.0409375 1.6875 16.0625 C1.460625 15.381875 1.23375 14.70125 1 14 C0.01 13.67 -0.98 13.34 -2 13 C-2.05447047 11.58376784 -2.09300508 10.16691809 -2.125 8.75 C-2.14820312 7.96109375 -2.17140625 7.1721875 -2.1953125 6.359375 C-1.9828378 3.79268059 -1.28654105 2.2083933 0 0 Z " fill="#2E362D" transform="translate(130,146)"/>
<path d="M0 0 C2.97 0 5.94 0 9 0 C9 1.65 9 3.3 9 5 C6.03 5 3.06 5 0 5 C0 3.35 0 1.7 0 0 Z " fill="#F65440" transform="translate(155,183)"/>
<path d="M0 0 C11.88 0 23.76 0 36 0 C36 0.33 36 0.66 36 1 C27.59605344 1.95654676 19.30076111 2.07464396 10.85644531 1.875 C10.02725586 1.86339844 9.19806641 1.85179687 8.34375 1.83984375 C7.60318359 1.82300537 6.86261719 1.80616699 6.09960938 1.78881836 C3.68964493 2.03121595 2.0879839 2.80412787 0 4 C0 2.68 0 1.36 0 0 Z " fill="#ECDCD5" transform="translate(76,174)"/>
<path d="M0 0 C2.78088642 1.68686153 5.00465038 3.41498736 7 6 C7.7262184 9.69777807 7.35392035 13.14993069 6.9375 16.875 C6.85822266 17.84953125 6.77894531 18.8240625 6.69726562 19.828125 C6.49763579 22.22368306 6.26450268 24.61088189 6 27 C4.02 27 2.04 27 0 27 C0 26.67 0 26.34 0 26 C1.65 26 3.3 26 5 26 C4.67 19.4 4.34 12.8 4 6 C2.68 5.67 1.36 5.34 0 5 C0 3.35 0 1.7 0 0 Z " fill="#EFC7A7" transform="translate(182,137)"/>
<path d="M0 0 C2.31 0 4.62 0 7 0 C7 0.33 7 0.66 7 1 C5.02 1 3.04 1 1 1 C1 2.32 1 3.64 1 5 C3.64 5 6.28 5 9 5 C8.34 6.32 7.68 7.64 7 9 C4.69 9 2.38 9 0 9 C0 6.03 0 3.06 0 0 Z " fill="#C65039" transform="translate(67,122)"/>
<path d="M0 0 C0 2.97 0 5.94 0 9 C-1.65 9 -3.3 9 -5 9 C-5 6.36 -5 3.72 -5 1 C-3 0 -3 0 0 0 Z " fill="#FBF8EB" transform="translate(111,164)"/>
<path d="M0 0 C1.2065625 0.0309375 1.2065625 0.0309375 2.4375 0.0625 C2.4375 1.0525 2.4375 2.0425 2.4375 3.0625 C1.7775 3.0625 1.1175 3.0625 0.4375 3.0625 C0.4375 3.7225 0.4375 4.3825 0.4375 5.0625 C1.0975 5.0625 1.7575 5.0625 2.4375 5.0625 C2.1075 6.0525 1.7775 7.0425 1.4375 8.0625 C-1.5325 7.5675 -1.5325 7.5675 -4.5625 7.0625 C-3.5234375 0.0859375 -3.5234375 0.0859375 0 0 Z " fill="#3B9300" transform="translate(141.5625,149.9375)"/>
<path d="M0 0 C0 0.99 0 1.98 0 3 C-1.093125 3.226875 -2.18625 3.45375 -3.3125 3.6875 C-7.07089599 4.65709097 -7.07089599 4.65709097 -8.875 7.375 C-9.82947123 9.60209955 -10.55980222 11.62293198 -11 14 C-11.99 14 -12.98 14 -14 14 C-14 13.34 -14 12.68 -14 12 C-13.34 12 -12.68 12 -12 12 C-11.9071875 10.39125 -11.9071875 10.39125 -11.8125 8.75 C-11 5 -11 5 -8.625 2.625 C-5.55278092 0.72315009 -3.6230669 0 0 0 Z " fill="#3A0A0A" transform="translate(198,85)"/>
<path d="M0 0 C2 2 2 2 2.0625 4.1875 C0.47494799 8.38984355 -2.46243473 11.27541557 -6 14 C-8.23046875 14.703125 -8.23046875 14.703125 -10 15 C-8.89697062 11.69091186 -8.23815444 11.20675689 -5.5625 9.1875 C-2.23986972 6.47084122 -0.91800257 4.28401201 0 0 Z " fill="#381313" transform="translate(135,68)"/>
<path d="M0 0 C0.33 0.66 0.66 1.32 1 2 C2.32 2 3.64 2 5 2 C5 4.31 5 6.62 5 9 C3.35 9 1.7 9 0 9 C0 6.03 0 3.06 0 0 Z " fill="#626885" transform="translate(119,179)"/>
<path d="M0 0 C0.77734375 1.640625 0.77734375 1.640625 1 4 C-0.87109375 6.796875 -0.87109375 6.796875 -3.4375 9.75 C-4.28183594 10.73484375 -5.12617188 11.7196875 -5.99609375 12.734375 C-6.65738281 13.48203125 -7.31867188 14.2296875 -8 15 C-8.66 14.67 -9.32 14.34 -10 14 C-9.16855469 12.86111328 -9.16855469 12.86111328 -8.3203125 11.69921875 C-7.59585938 10.70535156 -6.87140625 9.71148437 -6.125 8.6875 C-5.40570313 7.70136719 -4.68640625 6.71523437 -3.9453125 5.69921875 C-2.5944065 3.82476885 -1.28164671 1.92247007 0 0 Z " fill="#310A0A" transform="translate(189,67)"/>
<path d="M0 0 C-0.33 0.99 -0.66 1.98 -1 3 C-4.3 3.33 -7.6 3.66 -11 4 C-11 3.01 -11 2.02 -11 1 C-6.87831311 -0.62950412 -4.29299643 -1.26264601 0 0 Z " fill="#D5D5D8" transform="translate(79,208)"/>
<path d="M0 0 C3.96 0 7.92 0 12 0 C12 0.99 12 1.98 12 3 C8.04 3 4.08 3 0 3 C0 2.01 0 1.02 0 0 Z " fill="#FEF5EF" transform="translate(83,169)"/>
<path d="M0 0 C0.33 0 0.66 0 1 0 C1.1875 2.875 1.1875 2.875 1 6 C-2.74305712 8.49537141 -5.59381924 8.78944072 -10 8 C-12 6 -12 6 -13 4 C-12.01 4.33 -11.02 4.66 -10 5 C-5.345203 5.3053818 -5.345203 5.3053818 -1 4 C-0.34786708 1.97536745 -0.34786708 1.97536745 0 0 Z " fill="#451614" transform="translate(142,89)"/>
<path d="M0 0 C2.31 0 4.62 0 7 0 C7 2.64 7 5.28 7 8 C4.69 8 2.38 8 0 8 C0 7.67 0 7.34 0 7 C1.98 7 3.96 7 6 7 C6 5.68 6 4.36 6 3 C4.02 3 2.04 3 0 3 C0 2.01 0 1.02 0 0 Z " fill="#F1F4F0" transform="translate(182,180)"/>
<path d="M0 0 C1.98 0 3.96 0 6 0 C5.125 3.875 5.125 3.875 4 5 C2.33382885 5.04063832 0.66611905 5.042721 -1 5 C-0.67 3.35 -0.34 1.7 0 0 Z " fill="#E4E4E6" transform="translate(188,204)"/>
<path d="M0 0 C2.31 0 4.62 0 7 0 C7.33 1.32 7.66 2.64 8 4 C5.36 4 2.72 4 0 4 C0 2.68 0 1.36 0 0 Z " fill="#C74135" transform="translate(182,127)"/>
<path d="M0 0 C0 0.33 0 0.66 0 1 C-1.85625 1.37125 -1.85625 1.37125 -3.75 1.75 C-7.54084528 2.70106012 -9.57140576 3.824146 -12 7 C-13.23512079 9.13309192 -13.23512079 9.13309192 -14 11 C-14.45291114 7.10496422 -14.28517401 5.42316144 -12.0625 2.125 C-7.9563259 -0.72418203 -4.84435994 -0.47493725 0 0 Z " fill="#230606" transform="translate(107,76)"/>
<path d="M0 0 C1.65 0 3.3 0 5 0 C5 1.98 5 3.96 5 6 C3.35 6 1.7 6 0 6 C0 4.02 0 2.04 0 0 Z " fill="#5C78B6" transform="translate(130,182)"/>
<path d="M0 0 C2.97 0 5.94 0 9 0 C8.67 0.99 8.34 1.98 8 3 C6.15234375 3.73046875 6.15234375 3.73046875 3.9375 4.1875 C3.20402344 4.34605469 2.47054687 4.50460938 1.71484375 4.66796875 C0.86599609 4.83232422 0.86599609 4.83232422 0 5 C0 3.35 0 1.7 0 0 Z " fill="#BB3E34" transform="translate(196,127)"/>
<path d="M0 0 C1.32 0 2.64 0 4 0 C4 2.31 4 4.62 4 7 C2.68 7 1.36 7 0 7 C0 4.69 0 2.38 0 0 Z " fill="#536DAA" transform="translate(125,181)"/>
<path d="M0 0 C1.21236328 0.02707031 1.21236328 0.02707031 2.44921875 0.0546875 C3.37154297 0.08949219 3.37154297 0.08949219 4.3125 0.125 C4.6425 0.785 4.9725 1.445 5.3125 2.125 C1.0225 2.785 -3.2675 3.445 -7.6875 4.125 C-7.6875 3.465 -7.6875 2.805 -7.6875 2.125 C-4.48369983 -0.01086678 -3.66810033 -0.10632175 0 0 Z " fill="#381110" transform="translate(77.6875,81.875)"/>
<path d="M0 0 C0.66 0.99 1.32 1.98 2 3 C-0.97 7.95 -0.97 7.95 -4 13 C-5.32 12.67 -6.64 12.34 -8 12 C-7.50628906 11.38511719 -7.01257813 10.77023438 -6.50390625 10.13671875 C-5.54291016 8.92435547 -5.54291016 8.92435547 -4.5625 7.6875 C-3.92441406 6.88699219 -3.28632813 6.08648437 -2.62890625 5.26171875 C-0.83888645 3.01302723 -0.83888645 3.01302723 0 0 Z " fill="#E2C1C0" transform="translate(190,68)"/>
<path d="M0 0 C2.97 0 5.94 0 9 0 C9 0.99 9 1.98 9 3 C6.03 3 3.06 3 0 3 C0 2.01 0 1.02 0 0 Z " fill="#686998" transform="translate(181,131)"/>
<path d="M0 0 C2.97 0.33 5.94 0.66 9 1 C8.67 2.32 8.34 3.64 8 5 C8 4.34 8 3.68 8 3 C7.236875 3.226875 6.47375 3.45375 5.6875 3.6875 C3 4 3 4 1.1875 2.625 C0 1 0 1 0 0 Z " fill="#B13B32" transform="translate(52,127)"/>
<path d="M0 0 C0.66 0.33 1.32 0.66 2 1 C0.84826645 3.46800047 -0.04783565 5.04783565 -2 7 C-2.99 7.33 -3.98 7.66 -5 8 C-5.66 7.67 -6.32 7.34 -7 7 C-6 4 -6 4 -4.0625 2.9375 C-3.381875 2.628125 -2.70125 2.31875 -2 2 C-1.34 1.34 -0.68 0.68 0 0 Z " fill="#D3D3D5" transform="translate(169,212)"/>
<path d="M0 0 C2.31 0 4.62 0 7 0 C7.33 0.99 7.66 1.98 8 3 C5.03 3 2.06 3 -1 3 C-0.67 2.01 -0.34 1.02 0 0 Z " fill="#EB513F" transform="translate(156,178)"/>
<path d="M0 0 C0.33 0 0.66 0 1 0 C0.5317879 4.77576339 -0.24331998 8.04476345 -3 12 C-3.99 11.67 -4.98 11.34 -6 11 C-5.38125 10.113125 -4.7625 9.22625 -4.125 8.3125 C-2.34602259 5.53938816 -1.08916398 3.0859646 0 0 Z " fill="#31100F" transform="translate(123,85)"/>
<path d="M0 0 C0.33 0.66 0.66 1.32 1 2 C0.06421005 4.35981813 -0.93347808 6.69631264 -2 9 C-2.99 9 -3.98 9 -5 9 C-5.99 9.495 -5.99 9.495 -7 10 C-5.33248852 6.05860922 -2.77289351 3.2107188 0 0 Z " fill="#46474B" transform="translate(166,218)"/>
<path d="M0 0 C1.32 0 2.64 0 4 0 C4 1.98 4 3.96 4 6 C2.68 6 1.36 6 0 6 C0 4.02 0 2.04 0 0 Z " fill="#E2473E" transform="translate(169,182)"/>
<path d="M0 0 C1.32 0 2.64 0 4 0 C4 1.98 4 3.96 4 6 C2.68 6 1.36 6 0 6 C0 4.02 0 2.04 0 0 Z " fill="#5B77B7" transform="translate(143,182)"/>
<path d="M0 0 C1.32 0 2.64 0 4 0 C4 1.98 4 3.96 4 6 C2.68 6 1.36 6 0 6 C0 4.02 0 2.04 0 0 Z " fill="#5D79B6" transform="translate(137,182)"/>
<path d="M0 0 C0.33 0 0.66 0 1 0 C1.50227431 5.27388024 0.32894202 7.91015695 -3 12 C-3.99 12.33 -4.98 12.66 -6 13 C-4.91367588 10.74378837 -3.76654035 8.62646456 -2.4375 6.5 C-1.14826053 4.2578444 -0.46652072 2.51921187 0 0 Z " fill="#260B0A" transform="translate(115,83)"/>
<path d="M0 0 C2.31 0 4.62 0 7 0 C5.71937515 1.7074998 4.38232443 3.37373596 3 5 C2.34 5 1.68 5 1 5 C0.67 3.35 0.34 1.7 0 0 Z " fill="#EBD8D8" transform="translate(123,70)"/>
<path d="M0 0 C1.98 0 3.96 0 6 0 C6 0.66 6 1.32 6 2 C6.66 2.33 7.32 2.66 8 3 C4.7 3 1.4 3 -2 3 C-1.34 2.67 -0.68 2.34 0 2 C0 1.34 0 0.68 0 0 Z " fill="#CE453A" transform="translate(137,128)"/>
<path d="M0 0 C1.98 0 3.96 0 6 0 C6 0.66 6 1.32 6 2 C6.66 2.33 7.32 2.66 8 3 C4.7 3 1.4 3 -2 3 C-1.34 2.67 -0.68 2.34 0 2 C0 1.34 0 0.68 0 0 Z " fill="#CE453B" transform="translate(92,128)"/>
<path d="M0 0 C0.62648437 0.0721875 1.25296875 0.144375 1.8984375 0.21875 C3.12433594 0.35796875 3.12433594 0.35796875 4.375 0.5 C5.59316406 0.63921875 5.59316406 0.63921875 6.8359375 0.78125 C8.96912825 1.03352351 8.96912825 1.03352351 11 1 C10.67 1.99 10.34 2.98 10 4 C7.25 4.25 7.25 4.25 4 4 C1.625 2 1.625 2 0 0 Z " fill="#462521" transform="translate(148,95)"/>
<path d="M0 0 C2.475 0.495 2.475 0.495 5 1 C5.33 2.65 5.66 4.3 6 6 C5.67 5.34 5.34 4.68 5 4 C2.47266765 3.34444881 2.47266765 3.34444881 0 3 C0 2.01 0 1.02 0 0 Z " fill="#2C8D01" transform="translate(123,144)"/>
<path d="M0 0 C0 3.51716303 -0.82445585 4.37121748 -3 7 C-4.32 6.67 -5.64 6.34 -7 6 C-7 5.34 -7 4.68 -7 4 C-6.030625 3.525625 -5.06125 3.05125 -4.0625 2.5625 C-1.19522563 1.29806053 -1.19522563 1.29806053 0 0 Z " fill="#4F6094" transform="translate(82,114)"/>
<path d="M0 0 C0.66 0.66 1.32 1.32 2 2 C-1.32307692 5.93846154 -1.32307692 5.93846154 -4.75 6.25 C-5.4925 6.1675 -6.235 6.085 -7 6 C-7 5.34 -7 4.68 -7 4 C-5.824375 3.566875 -5.824375 3.566875 -4.625 3.125 C-1.90328368 2.15087746 -1.90328368 2.15087746 0 0 Z " fill="#330D0C" transform="translate(63,90)"/>
<path d="M0 0 C0.33 0 0.66 0 1 0 C1.36923077 7.38461538 1.36923077 7.38461538 -0.5 10.5 C-0.995 10.995 -1.49 11.49 -2 12 C-2.99 11.67 -3.98 11.34 -5 11 C-4.360625 10.29875 -3.72125 9.5975 -3.0625 8.875 C-0.83613898 5.77158767 -0.34919057 3.75379861 0 0 Z " fill="#321413" transform="translate(87,83)"/>
<path d="M0 0 C0.99 0 1.98 0 3 0 C3 1.98 3 3.96 3 6 C1.68 6 0.36 6 -1 6 C-0.67 4.02 -0.34 2.04 0 0 Z " fill="#DA473D" transform="translate(170,175)"/>
<path d="M0 0 C1 3 1 3 -0.4375 6.1875 C-1.2109375 7.5796875 -1.2109375 7.5796875 -2 9 C-2.66 9 -3.32 9 -4 9 C-3.46930939 5.17902761 -2.50298434 2.93828597 0 0 Z " fill="#450B0B" transform="translate(178,69)"/>
<path d="M0 0 C0.99 0 1.98 0 3 0 C3 1.98 3 3.96 3 6 C2.01 6 1.02 6 0 6 C0 4.02 0 2.04 0 0 Z " fill="#E44D3E" transform="translate(165,182)"/>
<path d="M0 0 C0.99 0 1.98 0 3 0 C3 1.98 3 3.96 3 6 C2.01 6 1.02 6 0 6 C0 4.02 0 2.04 0 0 Z " fill="#5876B9" transform="translate(121,182)"/>
<path d="M0 0 C1.65 0 3.3 0 5 0 C5 0.99 5 1.98 5 3 C3.02 3 1.04 3 -1 3 C-0.67 2.01 -0.34 1.02 0 0 Z " fill="#2A9200" transform="translate(139,150)"/>
<path d="M0 0 C2.475 0.495 2.475 0.495 5 1 C5 1.99 5 2.98 5 4 C3.35 4 1.7 4 0 4 C0 2.68 0 1.36 0 0 Z " fill="#308D01" transform="translate(123,149)"/>
<path d="M0 0 C0.66 0.33 1.32 0.66 2 1 C2 1.99 2 2.98 2 4 C-0.31 4 -2.62 4 -5 4 C-5 3.34 -5 2.68 -5 2 C-2.625 0.9375 -2.625 0.9375 0 0 Z " fill="#506198" transform="translate(64,114)"/>
<path d="M0 0 C0.33 0 0.66 0 1 0 C1.36666667 5.5 1.36666667 5.5 -0.375 7.875 C-2 9 -2 9 -4 9 C-3.71125 8.443125 -3.4225 7.88625 -3.125 7.3125 C-1.9586747 4.91505355 -0.9660119 2.48403061 0 0 Z " fill="#310D0D" transform="translate(86,69)"/>
<path d="M0 0 C0.66 0.66 1.32 1.32 2 2 C1.67 2.33 1.34 2.66 1 3 C3.97 3.495 3.97 3.495 7 4 C7 4.33 7 4.66 7 5 C4.36 5 1.72 5 -1 5 C-1 1 -1 1 0 0 Z " fill="#F2B5AC" transform="translate(69,85)"/>
</svg>
